<svg width="48" height="51" viewBox="0 0 48 51" fill="none" xmlns="http://www.w3.org/2000/svg">
<path fill-rule="evenodd" clip-rule="evenodd" d="M24 25.9062C24.4724 25.9062 24.9255 26.0939 25.2595 26.428C25.5936 26.762 25.7812 27.2151 25.7812 27.6875V29.4688H27.5625C28.0349 29.4688 28.488 29.6564 28.822 29.9905C29.1561 30.3245 29.3438 30.7776 29.3438 31.25C29.3438 31.7224 29.1561 32.1755 28.822 32.5095C28.488 32.8436 28.0349 33.0312 27.5625 33.0312H25.7812V34.8125C25.7812 35.2849 25.5936 35.738 25.2595 36.072C24.9255 36.4061 24.4724 36.5938 24 36.5938C23.5276 36.5938 23.0745 36.4061 22.7405 36.072C22.4064 35.738 22.2188 35.2849 22.2188 34.8125V33.0312H20.4375C19.9651 33.0312 19.512 32.8436 19.178 32.5095C18.8439 32.1755 18.6562 31.7224 18.6562 31.25C18.6562 30.7776 18.8439 30.3245 19.178 29.9905C19.512 29.6564 19.9651 29.4688 20.4375 29.4688H22.2188V27.6875C22.2188 27.2151 22.4064 26.762 22.7405 26.428C23.0745 26.0939 23.5276 25.9062 24 25.9062Z" fill="#3D71BD"/>
<path fill-rule="evenodd" clip-rule="evenodd" d="M23.8765 0.96875C21.7414 0.96875 19.9625 0.96875 18.5518 1.15875C17.0603 1.35825 15.7136 1.8 14.633 2.88063C13.55 3.96363 13.1082 5.31025 12.9087 6.79937C12.7188 8.2125 12.7188 9.99375 12.7188 12.1265V12.3118C7.91888 12.4685 5.03562 13.029 3.0335 15.0335C0.25 17.8146 0.25 22.2939 0.25 31.25C0.25 40.2061 0.25 44.6854 3.0335 47.4665C5.81462 50.25 10.2939 50.25 19.25 50.25H28.75C37.7061 50.25 42.1854 50.25 44.9665 47.4665C47.75 44.6854 47.75 40.2061 47.75 31.25C47.75 22.2939 47.75 17.8146 44.9665 15.0335C42.9644 13.029 40.0811 12.4685 35.2812 12.3118V12.1265C35.2812 9.99375 35.2812 8.2125 35.0913 6.80175C34.8918 5.31025 34.45 3.96362 33.367 2.883C32.2864 1.8 30.9397 1.35825 29.4482 1.15875C28.0375 0.96875 26.2563 0.96875 24.1235 0.96875H23.8765ZM31.7188 12.2547V12.25C31.7188 9.9605 31.714 8.4215 31.562 7.27437C31.4124 6.1795 31.1582 5.70925 30.8495 5.4005C30.5408 5.09175 30.0705 4.83763 28.9732 4.688C27.8285 4.536 26.2895 4.53125 24 4.53125C21.7105 4.53125 20.1715 4.536 19.0244 4.69037C17.9295 4.83762 17.4592 5.09175 17.1505 5.40288C16.8418 5.71163 16.5876 6.1795 16.438 7.27437C16.2884 8.4215 16.2812 9.9605 16.2812 12.25V12.2547C17.2122 12.25 18.2003 12.25 19.25 12.25H28.75C29.7997 12.25 30.7878 12.25 31.7188 12.2547ZM33.5 31.25C33.5 33.7696 32.4991 36.1859 30.7175 37.9675C28.9359 39.7491 26.5196 40.75 24 40.75C21.4804 40.75 19.0641 39.7491 17.2825 37.9675C15.5009 36.1859 14.5 33.7696 14.5 31.25C14.5 28.7304 15.5009 26.3141 17.2825 24.5325C19.0641 22.7509 21.4804 21.75 24 21.75C26.5196 21.75 28.9359 22.7509 30.7175 24.5325C32.4991 26.3141 33.5 28.7304 33.5 31.25Z" fill="#3D71BD"/>
</svg>
