<svg width="58" height="57" viewBox="0 0 58 57" fill="none" xmlns="http://www.w3.org/2000/svg">
<path d="M47.0824 38.359C44.1302 32.7499 41.1781 33.6356 37.9308 33.3404C38.226 34.226 38.226 35.1116 38.226 36.2925C42.9494 37.4733 44.1302 43.0824 44.1302 46.3297V49.2818H38.226V46.3297H41.1781C41.1781 46.3297 41.1781 38.9494 36.7499 38.9494C32.3218 38.9494 32.3218 46.0345 32.3218 46.3297H35.2739V49.2818H29.3696V46.3297C29.3696 43.0824 30.5505 37.1781 35.2739 36.2925C35.2739 34.5212 34.9787 33.0451 34.6835 32.4547C34.093 32.1595 33.5026 31.5691 33.5026 30.6835C33.5026 28.9122 35.8643 29.5026 37.6356 26.2553C37.6356 26.2553 40.2925 19.4654 39.4068 13.5612H36.4547C36.4547 12.9707 36.7499 12.6755 36.7499 12.0851C36.7499 11.4947 36.7499 11.1995 36.4547 10.609H38.8164C37.9308 7.65691 34.9787 5 29.3696 5C23.7606 5 20.8085 7.65691 19.6276 10.9042H21.9893C21.9893 11.4947 21.6941 11.7899 21.6941 12.3803C21.6941 12.9707 21.6941 13.2659 21.9893 13.8564H19.0372C18.4468 19.7606 20.8085 26.5505 20.8085 26.5505C22.5798 29.5026 24.9415 28.9122 24.9415 30.9787C24.9415 32.4547 23.4654 33.0451 21.6941 33.3404C21.1037 33.9308 20.5133 35.1116 20.5133 37.4733V41.0159C22.2845 41.6063 23.4654 43.3776 23.4654 45.1488C23.4654 47.2153 21.3989 49.2818 19.0372 49.2818C16.6755 49.2818 14.609 47.2153 14.609 44.8536C14.609 42.7871 15.7899 41.3111 17.5612 40.7207V37.1781C17.5612 35.7021 17.8564 34.5212 18.1516 33.3404C16.0851 33.6356 13.7234 34.5212 11.6569 38.359C9.88564 41.6063 9 52.2339 9 52.2339H49.4441C49.7393 52.2339 48.8536 41.6063 47.0824 38.359ZM24.9415 12.3803C24.9415 10.0186 27.0079 7.95212 29.3696 7.95212C31.7313 7.95212 33.7978 10.0186 33.7978 12.3803C33.7978 14.742 31.7313 16.8085 29.3696 16.8085C27.0079 16.8085 24.9415 14.742 24.9415 12.3803Z" fill="#3D71BD"/>
</svg>
