<svg width="23" height="23" viewBox="0 0 23 23" fill="none" xmlns="http://www.w3.org/2000/svg">
<path d="M23 11.5001C23 5.14878 17.8513 5.53131e-05 11.5 5.53131e-05C5.14872 5.53131e-05 0 5.14878 0 11.5001C0 17.24 4.20538 21.9976 9.70312 22.8604V14.8243H6.7832V11.5001H9.70312V8.96646C9.70312 6.08427 11.42 4.49224 14.0468 4.49224C15.305 4.49224 16.6211 4.71685 16.6211 4.71685V7.54693H15.171C13.7424 7.54693 13.2969 8.4334 13.2969 9.34284V11.5001H16.4863L15.9765 14.8243H13.2969V22.8604C18.7946 21.9976 23 17.24 23 11.5001Z" fill="#1877F2"/>
</svg>
