<svg width="18" height="16" viewBox="0 0 18 16" fill="none" xmlns="http://www.w3.org/2000/svg">
<path d="M6.41698 5.65512L6.70017 5.62373L6.81751 5.3641L8.99939 0.536584L11.1813 5.3641L11.2986 5.62377L11.5819 5.65513L11.6369 5.15817L11.5819 5.65514L11.582 5.65515L11.5824 5.6552L11.5842 5.65539L11.591 5.65614L11.6179 5.65912L11.7218 5.67063L12.1086 5.7135L13.4257 5.85962C14.4786 5.97652 15.7944 6.12286 16.8478 6.24079L12.9304 9.80535L12.7196 9.99713L12.7772 10.2762L13.8476 15.464C13.8464 15.4637 13.8451 15.4631 13.8436 15.4624L9.24554 12.8408L8.99779 12.6996L8.75009 12.8409L8.99789 13.2752L8.75006 12.8409L8.74997 12.841L8.74959 12.8412L8.74809 12.842L8.74212 12.8454L8.71864 12.8588L8.62784 12.9106L8.28979 13.1035L7.13878 13.7598C6.21899 14.2841 5.06947 14.939 4.14834 15.4625C4.36219 14.4247 4.62979 13.1292 4.84427 12.0926C4.95163 11.5737 5.04567 11.1198 5.11298 10.7957L5.13806 10.6752H6.02479L5.0683 9.80527L4.73189 10.1752L5.06828 9.80525L5.0682 9.80517L5.06788 9.80488L5.0666 9.80372L5.06151 9.79909L5.04151 9.7809L4.96417 9.71055L4.67624 9.44862L3.69621 8.55678C2.91299 7.84387 1.93454 6.9528 1.15214 6.23886C1.15247 6.23879 1.15281 6.23872 1.15318 6.23866L6.41698 5.65512ZM14.1424 15.8705L13.8485 15.4676L14.1402 15.8675L14.1407 15.8681L14.1424 15.8705Z" fill="#FBBC05" stroke="white"/>
</svg>
