<svg width="43" height="44" viewBox="0 0 43 44" fill="none" xmlns="http://www.w3.org/2000/svg">
<path d="M21.4401 15.7028C19.7535 15.7028 18.136 16.3728 16.9433 17.5654C15.7507 18.758 15.0807 20.3756 15.0807 22.0622C15.0807 23.7488 15.7507 25.3663 16.9433 26.5589C18.136 27.7515 19.7535 28.4216 21.4401 28.4216C23.1267 28.4216 24.7442 27.7515 25.9369 26.5589C27.1295 25.3663 27.7995 23.7488 27.7995 22.0622C27.7995 20.3756 27.1295 18.758 25.9369 17.5654C24.7442 16.3728 23.1267 15.7028 21.4401 15.7028ZM21.4401 11.4632C24.2511 11.4632 26.947 12.5799 28.9347 14.5676C30.9224 16.5553 32.0391 19.2512 32.0391 22.0622C32.0391 24.8732 30.9224 27.5691 28.9347 29.5568C26.947 31.5445 24.2511 32.6611 21.4401 32.6611C18.6291 32.6611 15.9332 31.5445 13.9455 29.5568C11.9578 27.5691 10.8411 24.8732 10.8411 22.0622C10.8411 19.2512 11.9578 16.5553 13.9455 14.5676C15.9332 12.5799 18.6291 11.4632 21.4401 11.4632ZM35.2188 10.9333C35.2188 11.636 34.9396 12.31 34.4427 12.8069C33.9457 13.3038 33.2718 13.583 32.569 13.583C31.8663 13.583 31.1923 13.3038 30.6954 12.8069C30.1984 12.31 29.9193 11.636 29.9193 10.9333C29.9193 10.2305 30.1984 9.55654 30.6954 9.05962C31.1923 8.5627 31.8663 8.28353 32.569 8.28353C33.2718 8.28353 33.9457 8.5627 34.4427 9.05962C34.9396 9.55654 35.2188 10.2305 35.2188 10.9333ZM21.4401 5.10384C16.1957 5.10384 15.3393 5.11868 12.8995 5.22679C11.2375 5.30522 10.1225 5.5278 9.08808 5.93056C8.22239 6.2484 7.43976 6.75783 6.7987 7.42077C6.13522 8.0618 5.62509 8.84439 5.30637 9.71015C4.90361 10.7488 4.68103 11.8617 4.60472 13.5215C4.49449 15.8618 4.47965 16.68 4.47965 22.0622C4.47965 27.3087 4.49449 28.1629 4.6026 30.6028C4.68103 32.2626 4.90361 33.3797 5.30425 34.4121C5.66461 35.3342 6.08857 35.9977 6.79234 36.7015C7.50671 37.4137 8.17021 37.8398 9.08172 38.1917C10.1289 38.5965 11.2439 38.8212 12.8973 38.8976C15.2376 39.0078 16.0558 39.0205 21.438 39.0205C26.6845 39.0205 27.5387 39.0057 29.9786 38.8976C31.6363 38.8191 32.7513 38.5965 33.7879 38.1959C34.6528 37.8765 35.4351 37.3673 36.0773 36.7057C36.7916 35.9935 37.2177 35.3299 37.5696 34.4163C37.9724 33.3734 38.1971 32.2584 38.2734 30.6007C38.3836 28.2626 38.3963 27.4422 38.3963 22.0622C38.3963 16.8178 38.3815 15.9614 38.2734 13.5215C38.1949 11.8639 37.9702 10.7446 37.5696 9.71015C37.2501 8.84531 36.7409 8.06303 36.0794 7.42077C35.4386 6.75695 34.656 6.24676 33.79 5.92844C32.7513 5.52568 31.6363 5.3031 29.9786 5.22679C27.6405 5.11656 26.8244 5.10384 21.4401 5.10384ZM21.4401 0.864258C27.1996 0.864258 27.9182 0.885456 30.18 0.991445C32.4355 1.09743 33.9744 1.45144 35.3247 1.97715C36.7238 2.51558 37.9024 3.24478 39.081 4.42127C40.1589 5.48094 40.993 6.76277 41.5251 8.17754C42.0487 9.52785 42.4048 11.0668 42.5108 13.3244C42.6105 15.5841 42.638 16.3027 42.638 22.0622C42.638 27.8216 42.6168 28.5403 42.5108 30.8C42.4048 33.0575 42.0487 34.5944 41.5251 35.9468C40.9944 37.3623 40.1602 38.6445 39.081 39.7031C38.021 40.7806 36.7393 41.6146 35.3247 42.1472C33.9744 42.6708 32.4355 43.0269 30.18 43.1329C27.9182 43.2325 27.1996 43.2601 21.4401 43.2601C15.6806 43.2601 14.962 43.2389 12.7002 43.1329C10.4447 43.0269 8.9079 42.6708 7.55547 42.1472C6.14014 41.6161 4.85809 40.7819 3.7992 39.7031C2.72114 38.6435 1.88706 37.3617 1.35508 35.9468C0.82937 34.5965 0.475365 33.0575 0.369375 30.8C0.267625 28.5403 0.242188 27.8216 0.242188 22.0622C0.242188 16.3027 0.263386 15.5841 0.369375 13.3244C0.475365 11.0647 0.82937 9.52997 1.35508 8.17754C1.88553 6.7619 2.71981 5.47972 3.7992 4.42127C4.8584 3.34278 6.14036 2.50864 7.55547 1.97715C8.90578 1.45144 10.4426 1.09743 12.7002 0.991445C14.962 0.891815 15.6806 0.864258 21.4401 0.864258Z" fill="#3D71BD"/>
</svg>
