<svg width="40" height="40" viewBox="0 0 40 40" fill="none" xmlns="http://www.w3.org/2000/svg">
<path d="M34.8385 0.984375C35.963 0.984375 37.0413 1.43104 37.8364 2.22612C38.6315 3.0212 39.0781 4.09955 39.0781 5.22396V34.901C39.0781 36.0255 38.6315 37.1038 37.8364 37.8989C37.0413 38.694 35.963 39.1406 34.8385 39.1406H5.16146C4.03705 39.1406 2.9587 38.694 2.16362 37.8989C1.36854 37.1038 0.921875 36.0255 0.921875 34.901V5.22396C0.921875 4.09955 1.36854 3.0212 2.16362 2.22612C2.9587 1.43104 4.03705 0.984375 5.16146 0.984375H34.8385ZM33.7786 33.8411V22.6063C33.7786 20.7735 33.0506 19.0157 31.7546 17.7198C30.4586 16.4238 28.7009 15.6957 26.8681 15.6957C25.0663 15.6957 22.9677 16.798 21.9502 18.4515V16.0985H16.036V33.8411H21.9502V23.3906C21.9502 21.7583 23.2645 20.4229 24.8967 20.4229C25.6838 20.4229 26.4387 20.7355 26.9952 21.2921C27.5518 21.8486 27.8644 22.6035 27.8644 23.3906V33.8411H33.7786ZM9.14667 12.7704C10.0912 12.7704 10.997 12.3952 11.6649 11.7274C12.3327 11.0595 12.7079 10.1537 12.7079 9.20917C12.7079 7.23776 11.1181 5.62672 9.14667 5.62672C8.19654 5.62672 7.28533 6.00415 6.61349 6.67599C5.94165 7.34783 5.56422 8.25904 5.56422 9.20917C5.56422 11.1806 7.17526 12.7704 9.14667 12.7704ZM12.0932 33.8411V16.0985H6.22135V33.8411H12.0932Z" fill="#3D71BD"/>
</svg>
