<svg width="81" height="24" viewBox="0 0 81 24" fill="none" xmlns="http://www.w3.org/2000/svg">
<path d="M0.4 23V1.4H4.48V19.19H13.78V23H0.4ZM25.0145 23.45C22.8545 23.45 20.9895 22.98 19.4195 22.04C17.8595 21.1 16.6545 19.785 15.8045 18.095C14.9645 16.405 14.5445 14.44 14.5445 12.2C14.5445 9.96 14.9645 7.995 15.8045 6.305C16.6545 4.615 17.8595 3.3 19.4195 2.36C20.9895 1.42 22.8545 0.95 25.0145 0.95C27.1745 0.95 29.0345 1.42 30.5945 2.36C32.1645 3.3 33.3695 4.615 34.2095 6.305C35.0595 7.995 35.4845 9.96 35.4845 12.2C35.4845 14.44 35.0595 16.405 34.2095 18.095C33.3695 19.785 32.1645 21.1 30.5945 22.04C29.0345 22.98 27.1745 23.45 25.0145 23.45ZM25.0145 19.61C26.3845 19.63 27.5245 19.335 28.4345 18.725C29.3445 18.115 30.0245 17.25 30.4745 16.13C30.9345 15.01 31.1645 13.7 31.1645 12.2C31.1645 10.7 30.9345 9.4 30.4745 8.3C30.0245 7.2 29.3445 6.345 28.4345 5.735C27.5245 5.125 26.3845 4.81 25.0145 4.79C23.6445 4.77 22.5045 5.065 21.5945 5.675C20.6845 6.285 19.9995 7.15 19.5395 8.27C19.0895 9.39 18.8645 10.7 18.8645 12.2C18.8645 13.7 19.0895 15 19.5395 16.1C19.9995 17.2 20.6845 18.055 21.5945 18.665C22.5045 19.275 23.6445 19.59 25.0145 19.61ZM47.4789 23.45C46.1189 23.45 44.8239 23.21 43.5939 22.73C42.3639 22.24 41.2739 21.52 40.3239 20.57C39.3839 19.62 38.6389 18.445 38.0889 17.045C37.5489 15.645 37.2789 14.03 37.2789 12.2C37.2789 9.81 37.7339 7.78 38.6439 6.11C39.5639 4.43 40.7939 3.15 42.3339 2.27C43.8839 1.39 45.5989 0.95 47.4789 0.95C50.2589 0.95 52.4439 1.595 54.0339 2.885C55.6239 4.175 56.6889 6 57.2289 8.36L53.0589 8.96C52.6689 7.7 52.0289 6.695 51.1389 5.945C50.2589 5.185 49.1289 4.8 47.7489 4.79C46.3789 4.77 45.2389 5.065 44.3289 5.675C43.4189 6.285 42.7339 7.15 42.2739 8.27C41.8239 9.39 41.5989 10.7 41.5989 12.2C41.5989 13.7 41.8239 15 42.2739 16.1C42.7339 17.2 43.4189 18.055 44.3289 18.665C45.2389 19.275 46.3789 19.59 47.7489 19.61C48.6789 19.63 49.5189 19.47 50.2689 19.13C51.0289 18.79 51.6689 18.255 52.1889 17.525C52.7089 16.795 53.0789 15.86 53.2989 14.72H49.8789V11.57H57.6489C57.6689 11.7 57.6839 11.93 57.6939 12.26C57.7039 12.59 57.7089 12.78 57.7089 12.83C57.7089 14.9 57.2889 16.735 56.4489 18.335C55.6089 19.935 54.4239 21.19 52.8939 22.1C51.3639 23 49.5589 23.45 47.4789 23.45ZM69.9852 23.45C67.8252 23.45 65.9602 22.98 64.3902 22.04C62.8302 21.1 61.6252 19.785 60.7752 18.095C59.9352 16.405 59.5152 14.44 59.5152 12.2C59.5152 9.96 59.9352 7.995 60.7752 6.305C61.6252 4.615 62.8302 3.3 64.3902 2.36C65.9602 1.42 67.8252 0.95 69.9852 0.95C72.1452 0.95 74.0052 1.42 75.5652 2.36C77.1352 3.3 78.3402 4.615 79.1802 6.305C80.0302 7.995 80.4552 9.96 80.4552 12.2C80.4552 14.44 80.0302 16.405 79.1802 18.095C78.3402 19.785 77.1352 21.1 75.5652 22.04C74.0052 22.98 72.1452 23.45 69.9852 23.45ZM69.9852 19.61C71.3552 19.63 72.4952 19.335 73.4052 18.725C74.3152 18.115 74.9952 17.25 75.4452 16.13C75.9052 15.01 76.1352 13.7 76.1352 12.2C76.1352 10.7 75.9052 9.4 75.4452 8.3C74.9952 7.2 74.3152 6.345 73.4052 5.735C72.4952 5.125 71.3552 4.81 69.9852 4.79C68.6152 4.77 67.4752 5.065 66.5652 5.675C65.6552 6.285 64.9702 7.15 64.5102 8.27C64.0602 9.39 63.8352 10.7 63.8352 12.2C63.8352 13.7 64.0602 15 64.5102 16.1C64.9702 17.2 65.6552 18.055 66.5652 18.665C67.4752 19.275 68.6152 19.59 69.9852 19.61Z" fill="#1B1C1E"/>
</svg>
