<svg width="51" height="49" viewBox="0 0 51 49" fill="none" xmlns="http://www.w3.org/2000/svg">
<path d="M45.9999 36.375C47.3616 36.375 48.5095 36.85 49.4437 37.8C50.3778 38.75 50.837 39.8583 50.8212 41.125L31.7499 48.25L15.1249 43.5V22.125H19.7562L37.0224 28.5137C38.2574 29.0046 38.8749 29.8913 38.8749 31.1738C38.8749 31.9179 38.6057 32.5671 38.0674 33.1213C37.5291 33.6754 36.8482 33.9683 36.0249 34H29.3749L25.2187 32.4088L24.4349 34.6413L29.3749 36.375H45.9999ZM36.4999 3.67125C38.1782 1.72375 40.3158 0.75 42.9124 0.75C45.0658 0.75 46.8866 1.54167 48.3749 3.125C49.8633 4.70833 50.6549 6.52917 50.7499 8.5875C50.7499 10.2183 49.9582 12.1658 48.3749 14.43C46.7916 16.6942 45.232 18.5862 43.6962 20.1062C42.1603 21.6262 39.7616 23.8825 36.4999 26.875C33.2066 23.8825 30.7841 21.6262 29.2324 20.1062C27.6807 18.5862 26.1212 16.6942 24.5537 14.43C22.9862 12.1658 22.2182 10.2183 22.2499 8.5875C22.2499 6.43417 23.0178 4.61333 24.5537 3.125C26.0895 1.63667 27.942 0.845 30.1112 0.75C32.6445 0.75 34.7741 1.72375 36.4999 3.67125ZM0.836914 22.125H10.3749V48.25H0.836914V22.125Z" fill="#3D71BD"/>
</svg>
