<svg width="46" height="37" viewBox="0 0 46 37" fill="none" xmlns="http://www.w3.org/2000/svg">
<path d="M45.2664 4.71908C43.6342 5.461 41.8748 5.94855 40.0518 6.18173C41.9172 5.05824 43.3586 3.27762 44.037 1.13663C42.2775 2.19652 40.3273 2.93845 38.2711 3.36241C36.5965 1.53939 34.2435 0.479492 31.5726 0.479492C26.5911 0.479492 22.5211 4.54949 22.5211 9.5734C22.5211 10.2941 22.6059 10.9937 22.7543 11.6508C15.2078 11.2692 8.48807 7.64439 4.01531 2.15413C3.23098 3.4896 2.78583 5.05824 2.78583 6.71168C2.78583 9.87017 4.37567 12.6683 6.83463 14.2581C5.32958 14.2581 3.93051 13.8342 2.70104 13.1982V13.2618C2.70104 17.671 5.83833 21.3594 9.99312 22.1862C8.65919 22.5512 7.25879 22.602 5.90192 22.3345C6.47767 24.1416 7.60525 25.7228 9.12616 26.8559C10.6471 27.989 12.4848 28.617 14.3811 28.6515C11.1667 31.1962 7.18227 32.5717 3.0826 32.5519C2.36187 32.5519 1.64114 32.5095 0.92041 32.4247C4.94801 35.0109 9.73874 36.5159 14.8686 36.5159C31.5726 36.5159 40.7513 22.6525 40.7513 10.6333C40.7513 10.2305 40.7513 9.84897 40.7301 9.44621C42.5107 8.17433 44.037 6.56329 45.2664 4.71908Z" fill="#3D71BD"/>
</svg>
