<svg width="38" height="38" viewBox="0 0 38 38" fill="none" xmlns="http://www.w3.org/2000/svg">
<path d="M31.925 6.25161C30.2442 4.55381 28.2421 3.20767 26.0356 2.29171C23.8291 1.37574 21.4623 0.90829 19.0733 0.916613C9.0633 0.916613 0.904968 9.07495 0.904968 19.0849C0.904968 22.2933 1.7483 25.4099 3.32497 28.1599L0.758301 37.5833L10.3833 35.0533C13.0416 36.5016 16.03 37.2716 19.0733 37.2716C29.0833 37.2716 37.2416 29.1133 37.2416 19.1033C37.2416 14.2449 35.3533 9.67995 31.925 6.25161ZM19.0733 34.1916C16.36 34.1916 13.7016 33.4583 11.3733 32.0833L10.8233 31.7533L5.1033 33.2566L6.62497 27.6833L6.2583 27.1149C4.75084 24.7077 3.95039 21.9252 3.9483 19.0849C3.9483 10.7616 10.7316 3.97828 19.055 3.97828C23.0883 3.97828 26.8833 5.55495 29.725 8.41495C31.132 9.81555 32.2471 11.4815 33.0055 13.3162C33.764 15.151 34.1507 17.118 34.1433 19.1033C34.18 27.4266 27.3966 34.1916 19.0733 34.1916ZM27.36 22.8983C26.9016 22.6783 24.665 21.5783 24.2616 21.4133C23.84 21.2666 23.5466 21.1933 23.235 21.6333C22.9233 22.0916 22.0616 23.1183 21.805 23.4116C21.5483 23.7233 21.2733 23.7599 20.815 23.5216C20.3566 23.3016 18.89 22.8066 17.1666 21.2666C15.81 20.0566 14.9116 18.5716 14.6366 18.1133C14.38 17.6549 14.6 17.4166 14.8383 17.1783C15.04 16.9766 15.2966 16.6466 15.5166 16.3899C15.7366 16.1333 15.8283 15.9316 15.975 15.6383C16.1216 15.3266 16.0483 15.0699 15.9383 14.8499C15.8283 14.6299 14.9116 12.3933 14.545 11.4766C14.1783 10.5966 13.7933 10.7066 13.5183 10.6883H12.6383C12.3266 10.6883 11.85 10.7983 11.4283 11.2566C11.025 11.7149 9.85163 12.8149 9.85163 15.0516C9.85163 17.2883 11.4833 19.4516 11.7033 19.7449C11.9233 20.0566 14.9116 24.6399 19.4583 26.6016C20.54 27.0783 21.3833 27.3533 22.0433 27.5549C23.125 27.9033 24.115 27.8483 24.9033 27.7383C25.7833 27.6099 27.5983 26.6383 27.965 25.5749C28.35 24.5116 28.35 23.6133 28.2216 23.4116C28.0933 23.2099 27.8183 23.1183 27.36 22.8983Z" fill="#3D71BD"/>
</svg>
